<?xml version="1.0" encoding="UTF-8"?>
<svg version="1.1" xmlns="http://www.w3.org/2000/svg" width="16" height="16">
<path d="M0 0 C5.28 0 10.56 0 16 0 C16 5.28 16 10.56 16 16 C10.72 16 5.44 16 0 16 C0 10.72 0 5.44 0 0 Z " fill="#F8FFFD" transform="translate(0,0)"/>
<path d="M0 0 C0.99 0 1.98 0 3 0 C3.66 1.98 4.32 3.96 5 6 C5.66 6 6.32 6 7 6 C7.66 4.02 8.32 2.04 9 0 C9.99 0.33 10.98 0.66 12 1 C12 3.97 12 6.94 12 10 C11.01 9.67 10.02 9.34 9 9 C9 7.68 9 6.36 9 5 C8.34 6.32 7.68 7.64 7 9 C6.34 9 5.68 9 5 9 C4.34 7.68 3.68 6.36 3 5 C3 6.65 3 8.3 3 10 C2.01 9.67 1.02 9.34 0 9 C0 6.03 0 3.06 0 0 Z " fill="#79FFDE" transform="translate(2,3)"/>
</svg>
